<svg id="0a3d801e-fb1a-45ce-8b24-b06dcc914414" data-name="Layer 1" xmlns="http://www.w3.org/2000/svg" width="57.503mm" height="17.286mm" viewBox="0 0 163 49">
  <title>buttons</title>
  <rect x="0.5" y="0.5" width="162" height="48" rx="6" ry="6" fill="#fff" stroke="#231f20" stroke-miterlimit="10"/>
  <g>
    <path d="M32.794,31.684H29.217L20.441,17.463h-.1l.061.793q.171,2.271.171,4.151v9.277H17.926V13.837h3.54l8.752,14.148h.074q-.026-.281-.1-2.044t-.073-2.753V13.837h2.673Z"/>
    <path d="M43.1,31.928a6.53,6.53,0,0,1-4.926-1.837,6.974,6.974,0,0,1-1.776-5.06,7.651,7.651,0,0,1,1.648-5.2,5.694,5.694,0,0,1,4.529-1.892A5.559,5.559,0,0,1,46.8,19.563a6.2,6.2,0,0,1,1.551,4.467v1.551h-9A4.437,4.437,0,0,0,40.411,28.6a3.7,3.7,0,0,0,2.82,1.056,10.389,10.389,0,0,0,2.228-.226,11.685,11.685,0,0,0,2.215-.751v2.332a8.782,8.782,0,0,1-2.124.708A13.053,13.053,0,0,1,43.1,31.928Zm-.525-11.816a2.884,2.884,0,0,0-2.192.867,4.133,4.133,0,0,0-.982,2.526h6.128a3.742,3.742,0,0,0-.806-2.533A2.758,2.758,0,0,0,42.572,20.112Z"/>
    <path d="M62.678,31.684l-1.746-6.3q-.32-1-1.149-4.651h-.109q-.709,3.3-1.123,4.676l-1.8,6.274H53.582L49.8,18.183h2.931l1.72,6.653q.587,2.466.83,4.224h.075q.12-.891.371-2.045c.166-.769.312-1.345.433-1.727l2.051-7.1h3.15l1.989,7.105q.184.6.459,1.831a14.141,14.141,0,0,1,.322,1.916h.1a37.857,37.857,0,0,1,.855-4.2l1.746-6.653h2.881L65.9,31.684Z"/>
    <path d="M86.127,22h6.566v8.96a18.943,18.943,0,0,1-3.093.744,21.849,21.849,0,0,1-3.2.22,8.051,8.051,0,0,1-6.25-2.4,9.661,9.661,0,0,1-2.2-6.769,9.027,9.027,0,0,1,2.479-6.745,9.318,9.318,0,0,1,6.824-2.435,13.288,13.288,0,0,1,5.3,1.074l-1.025,2.429a10.316,10.316,0,0,0-4.346-1,5.852,5.852,0,0,0-4.516,1.8A6.943,6.943,0,0,0,81,22.785a7.322,7.322,0,0,0,1.5,4.974,5.417,5.417,0,0,0,4.3,1.7,14.074,14.074,0,0,0,3.027-.354v-4.6h-3.7Z"/>
    <path d="M105.121,31.684l-.574-1.88h-.1a5.516,5.516,0,0,1-1.965,1.679,6.214,6.214,0,0,1-2.539.445,4.3,4.3,0,0,1-3.106-1.074,4.018,4.018,0,0,1-1.117-3.04,3.567,3.567,0,0,1,1.55-3.149A8.948,8.948,0,0,1,102,23.505l2.332-.073v-.72a2.736,2.736,0,0,0-.6-1.935,2.468,2.468,0,0,0-1.874-.641,6.5,6.5,0,0,0-1.991.3,15.1,15.1,0,0,0-1.83.721L97.1,19.111a10.015,10.015,0,0,1,2.4-.873,11.086,11.086,0,0,1,2.466-.3,5.836,5.836,0,0,1,3.887,1.123,4.4,4.4,0,0,1,1.313,3.528v9.094Zm-4.272-1.953a3.55,3.55,0,0,0,2.508-.873,3.167,3.167,0,0,0,.946-2.447V25.239l-1.733.073a5.918,5.918,0,0,0-2.948.678,2.056,2.056,0,0,0-.922,1.849,1.806,1.806,0,0,0,.537,1.4A2.314,2.314,0,0,0,100.849,29.731Z"/>
    <path d="M122.553,31.684h-2.881V23.359a3.777,3.777,0,0,0-.586-2.314,2.164,2.164,0,0,0-1.831-.762,2.8,2.8,0,0,0-2.436,1.08,6.347,6.347,0,0,0-.774,3.595v6.726h-2.869v-13.5h2.246l.4,1.77h.147a3.75,3.75,0,0,1,1.63-1.489,5.253,5.253,0,0,1,2.35-.525q3.111,0,4.125,2.124h.2a4.121,4.121,0,0,1,1.685-1.563,5.348,5.348,0,0,1,2.49-.561,4.534,4.534,0,0,1,3.522,1.221,5.409,5.409,0,0,1,1.1,3.723v8.8h-2.868V23.359a3.748,3.748,0,0,0-.593-2.314,2.179,2.179,0,0,0-1.837-.762,2.844,2.844,0,0,0-2.447,1.044,5.374,5.374,0,0,0-.775,3.2Z"/>
    <path d="M140.973,31.928a6.53,6.53,0,0,1-4.926-1.837,6.97,6.97,0,0,1-1.776-5.06,7.656,7.656,0,0,1,1.647-5.2,5.7,5.7,0,0,1,4.529-1.892,5.56,5.56,0,0,1,4.224,1.624,6.2,6.2,0,0,1,1.55,4.467v1.551h-9a4.432,4.432,0,0,0,1.062,3.021,3.7,3.7,0,0,0,2.82,1.056,10.372,10.372,0,0,0,2.227-.226,11.693,11.693,0,0,0,2.216-.751v2.332a8.782,8.782,0,0,1-2.124.708A13.053,13.053,0,0,1,140.973,31.928Zm-.526-11.816a2.883,2.883,0,0,0-2.191.867,4.127,4.127,0,0,0-.982,2.526H143.4a3.742,3.742,0,0,0-.805-2.533A2.76,2.76,0,0,0,140.447,20.112Z"/>
  </g>
</svg>
